{
    "asset" : {
        "generator" : "Khronos glTF Blender I/O v1.4.40",
        "version" : "2.0"
    },
    "extensionsUsed" : [
        "KHR_lights_punctual"
    ],
    "extensionsRequired" : [
        "KHR_lights_punctual"
    ],
    "extensions" : {
        "KHR_lights_punctual" : {
            "lights" : [
                {
                    "color" : [
                        1,
                        1,
                        1
                    ],
                    "intensity" : 333.60003662109375,
                    "type" : "point",
                    "range" : 60.37000274658203,
                    "name" : "Point"
                }
            ]
        }
    },
    "scene" : 0,
    "scenes" : [
        {
            "name" : "Scene",
            "nodes" : [
                1,
                2,
                3
            ]
        }
    ],
    "nodes" : [
        {
            "extensions" : {
                "KHR_lights_punctual" : {
                    "light" : 0
                }
            },
            "name" : "pointLight_Orientation",
            "rotation" : [
                -0.7071067690849304,
                0,
                0,
                0.7071067690849304
            ]
        },
        {
            "children" : [
                0
            ],
            "name" : "pointLight",
            "translation" : [
                4.380884647369385,
                7.066945552825928,
                2.7578115463256836
            ]
        },
        {
            "mesh" : 0,
            "name" : "levels",
            "scale" : [
                0.764563798904419,
                0.7768617868423462,
                0.4028744399547577
            ],
            "translation" : [
                -2.1808369159698486,
                -2.2433223724365234,
                0
            ]
        },
        {
            "name" : "areaLight",
            "translation" : [
                0.7895771265029907,
                3.089132308959961,
                7.962863922119141
            ]
        }
    ],
    "materials" : [
        {
            "doubleSided" : true,
            "name" : "Material",
            "pbrMetallicRoughness" : {
                "baseColorFactor" : [
                    0.800000011920929,
                    0.800000011920929,
                    0.800000011920929,
                    1
                ],
                "metallicFactor" : 0,
                "roughnessFactor" : 0.27889060974121094
            }
        }
    ],
    "meshes" : [
        {
            "name" : "pill",
            "primitives" : [
                {
                    "attributes" : {
                        "POSITION" : 0,
                        "NORMAL" : 1,
                        "TEXCOORD_0" : 2
                    },
                    "indices" : 3,
                    "material" : 0
                }
            ]
        }
    ],
    "accessors" : [
        {
            "bufferView" : 0,
            "componentType" : 5126,
            "count" : 5970,
            "max" : [
                7.779788494110107,
                6.475502967834473,
                0.8683910369873047
            ],
            "min" : [
                -2.0473127365112305,
                -0.8520398139953613,
                -3.6472415924072266
            ],
            "type" : "VEC3"
        },
        {
            "bufferView" : 1,
            "componentType" : 5126,
            "count" : 5970,
            "type" : "VEC3"
        },
        {
            "bufferView" : 2,
            "componentType" : 5126,
            "count" : 5970,
            "type" : "VEC2"
        },
        {
            "bufferView" : 3,
            "componentType" : 5123,
            "count" : 33408,
            "type" : "SCALAR"
        }
    ],
    "bufferViews" : [
        {
            "buffer" : 0,
            "byteLength" : 71640,
            "byteOffset" : 0
        },
        {
            "buffer" : 0,
            "byteLength" : 71640,
            "byteOffset" : 71640
        },
        {
            "buffer" : 0,
            "byteLength" : 47760,
            "byteOffset" : 143280
        },
        {
            "buffer" : 0,
            "byteLength" : 66816,
            "byteOffset" : 191040
        }
    ],
    "buffers" : [
        {
            "byteLength" : 257856,
            "uri" : "data:application/octet-stream;base64,"
        }
    ]
}
