{
    "asset" : {
        "generator" : "Khronos glTF Blender I/O v1.4.40",
        "version" : "2.0"
    },
    "scene" : 0,
    "scenes" : [
        {
            "name" : "Scene",
            "nodes" : [
                0
            ]
        }
    ],
    "nodes" : [
        {
            "mesh" : 0,
            "name" : "Cube",
            "scale" : [
                1,
                1,
                0.17965660989284515
            ],
            "translation" : [
                -1.9012895822525024,
                -2.7212772369384766,
                0
            ]
        }
    ],
    "meshes" : [
        {
            "name" : "Cube",
            "primitives" : [
                {
                    "attributes" : {
                        "POSITION" : 0,
                        "NORMAL" : 1,
                        "TEXCOORD_0" : 2
                    },
                    "indices" : 3
                }
            ]
        }
    ],
    "accessors" : [
        {
            "bufferView" : 0,
            "componentType" : 5126,
            "count" : 5154,
            "max" : [
                7.129502773284912,
                6.336406707763672,
                0.8562712669372559
            ],
            "min" : [
                -3.325883150100708,
                -0.8562712073326111,
                -0.8562712073326111
            ],
            "type" : "VEC3"
        },
        {
            "bufferView" : 1,
            "componentType" : 5126,
            "count" : 5154,
            "type" : "VEC3"
        },
        {
            "bufferView" : 2,
            "componentType" : 5126,
            "count" : 5154,
            "type" : "VEC2"
        },
        {
            "bufferView" : 3,
            "componentType" : 5123,
            "count" : 28800,
            "type" : "SCALAR"
        }
    ],
    "bufferViews" : [
        {
            "buffer" : 0,
            "byteLength" : 61848,
            "byteOffset" : 0
        },
        {
            "buffer" : 0,
            "byteLength" : 61848,
            "byteOffset" : 61848
        },
        {
            "buffer" : 0,
            "byteLength" : 41232,
            "byteOffset" : 123696
        },
        {
            "buffer" : 0,
            "byteLength" : 57600,
            "byteOffset" : 164928
        }
    ],
    "buffers" : [
        {
            "byteLength" : 222528,
            "uri" : "data:application/octet-stream;base64,"
        }
    ]
}
